<svg width="27" height="20" viewBox="0 0 27 20" fill="none" xmlns="http://www.w3.org/2000/svg">
<rect width="26.6667" height="20" fill="#EEF3F8"/>
<rect width="15" height="12.7273" fill="#41479B"/>
<rect x="15" width="11.6667" height="1.81818" fill="#DC251C"/>
<rect x="15" y="3.63637" width="11.6667" height="1.81818" fill="#DC251C"/>
<rect x="15" y="7.27275" width="11.6667" height="1.81818" fill="#DC251C"/>
<rect x="15" y="10.9091" width="11.6667" height="1.81818" fill="#DC251C"/>
<rect y="14.5454" width="26.6667" height="1.81818" fill="#DC251C"/>
<rect y="18.1818" width="26.6667" height="1.81818" fill="#DC251C"/>
<rect x="1.66675" y="1.81819" width="1.66667" height="1.81818" fill="#C5D0EC"/>
<rect x="5" y="1.81821" width="1.66667" height="1.81818" fill="#C5D0EC"/>
<rect x="8.33325" y="1.81821" width="1.66667" height="1.81818" fill="#C5D0EC"/>
<rect x="11.6667" y="1.81821" width="1.66667" height="1.81818" fill="#C5D0EC"/>
<rect x="1.66675" y="5.45457" width="1.66667" height="1.81818" fill="#C5D0EC"/>
<rect x="5" y="5.45457" width="1.66667" height="1.81818" fill="#C5D0EC"/>
<rect x="8.33325" y="5.45457" width="1.66667" height="1.81818" fill="#C5D0EC"/>
<rect x="3.33325" y="7.27277" width="1.66667" height="1.81818" fill="#C5D0EC"/>
<rect x="6.66675" y="7.27277" width="1.66667" height="1.81818" fill="#C5D0EC"/>
<rect x="10" y="7.27277" width="1.66667" height="1.81818" fill="#C5D0EC"/>
<rect x="3.33325" y="3.63638" width="1.66667" height="1.81818" fill="#C5D0EC"/>
<rect x="6.66675" y="3.63638" width="1.66667" height="1.81818" fill="#C5D0EC"/>
<rect x="10" y="3.63638" width="1.66667" height="1.81818" fill="#C5D0EC"/>
<rect x="11.6667" y="5.45457" width="1.66667" height="1.81818" fill="#C5D0EC"/>
<rect x="1.66675" y="9.09094" width="1.66667" height="1.81818" fill="#C5D0EC"/>
<rect x="5" y="9.09094" width="1.66667" height="1.81818" fill="#C5D0EC"/>
<rect x="8.33325" y="9.09094" width="1.66667" height="1.81818" fill="#C5D0EC"/>
<rect x="11.6667" y="9.09094" width="1.66667" height="1.81818" fill="#C5D0EC"/>
</svg>
