<svg width="24" height="24" viewBox="0 0 24 24" fill="none" xmlns="http://www.w3.org/2000/svg">
  <path d="M12 24C18.6274 24 24 18.6274 24 12C24 5.37258 18.6274 0 12 0C5.37258 0 0 5.37258 0 12C0 18.6274 5.37258 24 12 24Z" fill="#F0F0F0"/>
  <path d="M2.4813 4.69418C1.53869 5.92057 0.827922 7.33409 0.414062 8.86967H6.65678L2.4813 4.69418Z" fill="#0052B4"/>
  <path d="M23.5883 8.86965C23.1745 7.33412 22.4637 5.9206 21.5211 4.69421L17.3457 8.86965H23.5883Z" fill="#0052B4"/>
  <path d="M0.414062 15.1305C0.827969 16.6661 1.53873 18.0796 2.4813 19.3059L6.65664 15.1305H0.414062Z" fill="#0052B4"/>
  <path d="M19.3063 2.48069C18.0799 1.53808 16.6664 0.827313 15.1309 0.413406V6.65608L19.3063 2.48069Z" fill="#0052B4"/>
  <path d="M4.69531 21.5193C5.9217 22.4619 7.33522 23.1727 8.87075 23.5866V17.344L4.69531 21.5193Z" fill="#0052B4"/>
  <path d="M8.8707 0.413406C7.33517 0.827312 5.92166 1.53808 4.69531 2.48064L8.8707 6.65603V0.413406Z" fill="#0052B4"/>
  <path d="M15.1309 23.5866C16.6664 23.1727 18.0799 22.4619 19.3062 21.5194L15.1309 17.344V23.5866Z" fill="#0052B4"/>
  <path d="M17.3457 15.1305L21.5211 19.306C22.4637 18.0796 23.1745 16.6661 23.5883 15.1305H17.3457Z" fill="#0052B4"/>
  <path d="M23.8984 10.4348H13.5653H13.5653V0.101578C13.0529 0.034875 12.5305 0 12 0C11.4694 0 10.9471 0.034875 10.4348 0.101578V10.4347V10.4347H0.101578C0.034875 10.9471 0 11.4695 0 12C0 12.5306 0.034875 13.0529 0.101578 13.5652H10.4347H10.4347V23.8984C10.9471 23.9651 11.4694 24 12 24C12.5305 24 13.0529 23.9652 13.5652 23.8984V13.5653V13.5653H23.8984C23.9651 13.0529 24 12.5306 24 12C24 11.4695 23.9651 10.9471 23.8984 10.4348Z" fill="#D80027"/>
  <path d="M15.1309 15.1305L20.4857 20.4853C20.732 20.2391 20.9669 19.9817 21.191 19.7149L16.6066 15.1305H15.1309V15.1305Z" fill="#D80027"/>
  <path d="M8.87048 15.1305H8.87039L3.51562 20.4853C3.76181 20.7315 4.0192 20.9665 4.28602 21.1906L8.87048 16.6061V15.1305Z" fill="#D80027"/>
  <path d="M8.86878 8.86963V8.86954L3.51397 3.51468C3.26769 3.76087 3.03275 4.01826 2.80859 4.28507L7.39311 8.86959H8.86878V8.86963Z" fill="#D80027"/>
  <path d="M15.1309 8.86965L20.4857 3.51475C20.2395 3.26846 19.9821 3.03353 19.7153 2.80942L15.1309 7.39393V8.86965Z" fill="#D80027"/>
</svg>
