<svg width="121" height="34" viewBox="0 0 121 34" fill="none" xmlns="http://www.w3.org/2000/svg">
<path d="M67.4653 8.9556H70.8549V26.6164H67.6964V14.5023L62.4964 23.1882H60.8979L55.6979 14.4638V26.6164H52.5586V8.9556H55.9097L61.6682 18.6045L67.4653 8.9556ZM109.489 24.883C108.141 23.5156 107.39 21.6475 107.448 19.7215C107.39 17.7764 108.141 15.9082 109.489 14.56C110.856 13.1734 112.705 12.4223 114.631 12.4608C117.154 12.403 119.504 13.7704 120.717 16.0238L118.194 17.5067C117.539 16.1393 116.133 15.2726 114.612 15.3497C113.476 15.3112 112.378 15.7734 111.569 16.5823C110.779 17.4104 110.356 18.5275 110.375 19.6638C110.356 20.8193 110.779 21.9364 111.569 22.7645C112.378 23.5734 113.476 24.0164 114.612 23.9971C116.133 24.0356 117.539 23.2075 118.233 21.8401L120.775 23.3038C119.542 25.5571 117.193 26.9438 114.651 26.9053C112.725 26.9438 110.876 26.2312 109.489 24.883ZM101.843 26.6356V12.8075H104.79V26.6164L101.843 26.6356ZM101.978 10.2075C101.612 9.86079 101.419 9.3793 101.419 8.87856C101.419 8.37782 101.612 7.89634 101.978 7.54967C102.325 7.18375 102.806 6.97189 103.307 6.97189C103.808 6.97189 104.289 7.18375 104.636 7.54967C105.368 8.30078 105.368 9.49486 104.616 10.246C103.904 10.9586 102.71 10.9586 101.978 10.2075ZM99.1661 15.6771H95.7764V22.3023C95.7764 24.0549 96.9127 24.0356 99.1661 23.9201V26.6164C94.6594 27.1749 92.849 25.923 92.849 22.3023V15.6771H90.326V12.8075H92.849V8.9556H95.7957V12.8075H99.1853L99.1661 15.6771ZM80.5423 24.1319C81.6979 24.1512 82.7957 23.7082 83.6238 22.8993C84.452 22.0519 84.8949 20.8964 84.8564 19.7215C84.8757 18.5467 84.4327 17.4104 83.6238 16.5823C81.9097 14.8875 79.1749 14.8875 77.4608 16.5823C76.6327 17.4104 76.1897 18.5467 76.2283 19.7215C76.1897 20.9156 76.6327 22.0519 77.4608 22.8993C78.2697 23.7082 79.3483 24.1512 80.4846 24.1319H80.5423ZM84.7986 12.8075H87.7453V26.6164H84.7986V24.6327C83.7009 26.1734 81.9097 27.0593 80.0416 26.9823C78.212 27.0015 76.4786 26.2504 75.246 24.883C73.9364 23.4964 73.2238 21.6282 73.2623 19.7215C73.2045 17.7956 73.9171 15.9467 75.2268 14.56C76.4594 13.1926 78.212 12.4415 80.0416 12.48C81.929 12.3838 83.7201 13.2504 84.8179 14.7912L84.7986 12.8075Z" fill="#4AA956"/>
<path d="M22.6875 16.9096L29.2934 13.1541V20.6267L22.6875 24.3822V16.9096Z" fill="#4AA956"/>
<path d="M30.2563 30.237V4.56442L36.8623 8.31998V33.9733L30.2563 30.237Z" fill="#4AA956"/>
<path d="M37.8252 8.31998L44.4311 4.56442V30.16L37.8252 33.9156V8.31998Z" fill="#4AA956"/>
<path d="M30.7571 3.7363L37.3438 0L43.9304 3.7363L37.3438 7.4726L30.7571 3.7363Z" fill="#4AA956"/>
<path d="M0 30.16V4.56442L21.7245 16.9096V24.3822L6.60593 15.7926V33.9156L0 30.16Z" fill="#4AA956"/>
<path d="M0.500732 3.7363L7.08741 0L28.8119 12.3259L25.403 14.2711L22.2059 16.0622L0.500732 3.7363Z" fill="#4AA956"/>
<path d="M7.56909 17.4489L14.175 21.2045V30.16L7.56909 33.9156V17.4489Z" fill="#4AA956"/>
</svg>
