<svg width="95" height="22" viewBox="0 0 95 22" fill="none" xmlns="http://www.w3.org/2000/svg">
<path fill-rule="evenodd" clip-rule="evenodd" d="M19.074 16.0558C17.9074 16.0558 16.9617 15.1134 16.9617 13.951V9.08967V8.75223C16.9617 7.58968 16.016 6.64744 14.8495 6.64744C13.6828 6.64744 12.9442 7.58982 12.9442 8.75223V9.18439V13.9509C12.9442 15.1133 11.7913 16.0557 10.6248 16.0557C9.45814 16.0557 8.51251 15.1133 8.51251 13.9509V12.7641V9.12476C8.49165 9.11321 8.47036 9.10278 8.4495 9.09136V8.75223C8.4495 7.58968 7.69289 6.64744 6.52639 6.64744C5.35975 6.64744 4.41412 7.58982 4.41412 8.75223V9.18284C4.41412 9.18284 4.47712 14.1049 4.72942 15.4889C4.98158 16.873 5.80134 17.7256 6.87326 18.858C7.94519 19.9904 6.3058 22.5978 4.16196 21.1509C2.01812 19.7039 0.929985 17.8666 0.567886 15.4889C0.19888 13.0681 0 8.79804 0 8.79804C0 8.79804 0.0841469 7.26804 0.281899 6.92581C1.08094 4.34291 3.48949 2.46631 6.33709 2.46631C7.97535 2.46631 9.46843 3.08761 10.5932 4.1071C11.718 3.08761 13.2111 2.46631 14.8495 2.46631C17.6969 2.46631 20.1055 4.34291 20.9045 6.92581C21.1023 7.26804 21.1864 8.79804 21.1864 8.79804V12.7642V13.951C21.1864 15.1134 20.2406 16.0558 19.074 16.0558Z" fill="white"/>
<path fill-rule="evenodd" clip-rule="evenodd" d="M6.51455 6.52149C7.68119 6.52149 8.62682 7.46388 8.62682 8.62629V13.4876V13.8251C8.62682 14.9876 9.57259 15.93 10.7391 15.93C11.9057 15.93 12.8515 14.9876 12.8515 13.8251V13.3929V8.62629C12.8515 7.46388 13.7971 6.52149 14.9638 6.52149C16.1304 6.52149 17.0762 7.46388 17.0762 8.62629V9.81309V13.4524C17.097 13.464 17.1183 13.4744 17.1392 13.4858V13.8251C17.1392 14.9876 17.8958 15.93 19.0623 15.93C20.2289 15.93 21.1746 14.9876 21.1746 13.8251V13.3945C21.1746 13.3945 21.1116 8.47238 20.8593 7.08839C20.607 5.70441 19.7873 4.85166 18.7154 3.71927C17.6435 2.58689 19.2829 -0.0205387 21.4267 1.42645C23.5706 2.87344 24.6587 4.71071 25.0208 7.08839C25.3895 9.5092 25.5883 13.7793 25.5883 13.7793C25.5883 13.7793 25.5041 15.3093 25.3064 15.6515C24.5073 18.2344 22.0988 20.111 19.2512 20.111C17.6129 20.111 16.1198 19.4897 14.9951 18.4702C13.8703 19.4897 12.3772 20.111 10.7388 20.111C7.89134 20.111 5.4828 18.2344 4.68375 15.6515C4.486 15.3093 4.40186 13.7793 4.40186 13.7793V9.81309V8.62629C4.40228 7.46388 5.34791 6.52149 6.51455 6.52149Z" fill="white" stroke="#4AA956"/>
<path d="M42.0605 5.38915C41.8056 5.21875 41.4616 5.13347 41.0285 5.13347H40.3252C39.902 5.13347 39.5951 5.17167 39.4039 5.24792C39.2128 5.32418 39.0714 5.4616 38.9797 5.65992C38.8879 5.85824 38.7835 6.18143 38.6662 6.62895L37.0378 12.7559L35.4094 6.62895C35.2921 6.18143 35.1877 5.85838 35.0959 5.65992C35.0042 5.4616 34.8628 5.32418 34.6717 5.24792C34.4806 5.17167 34.1734 5.13347 33.7504 5.13347H33.0471C32.6138 5.13347 32.2698 5.21875 32.0151 5.38915C31.7602 5.55956 31.6328 5.88896 31.6328 6.37721V15.228C31.6328 15.6604 31.7295 15.9822 31.9233 16.1932C32.117 16.4042 32.3667 16.5099 32.6725 16.5099C32.9885 16.5099 33.242 16.4031 33.4332 16.1896C33.6243 15.9759 33.7199 15.6555 33.7199 15.2281V7.5065L35.5164 14.6329C35.5776 14.8669 35.6373 15.092 35.6961 15.3082C35.7546 15.5244 35.8349 15.7215 35.9368 15.8995C36.0388 16.0776 36.1815 16.2238 36.3649 16.3383C36.5484 16.4527 36.7727 16.5099 37.0377 16.5099C37.3893 16.5099 37.6646 16.4209 37.8633 16.2428C38.0621 16.0648 38.1984 15.8678 38.2724 15.6515C38.3462 15.4353 38.4418 15.0959 38.5591 14.6329L40.3556 7.5065V15.2281C40.3556 15.6554 40.4524 15.9759 40.6461 16.1896C40.8398 16.4032 41.0869 16.5099 41.3876 16.5099C41.7087 16.5099 41.9648 16.4031 42.156 16.1896C42.3471 15.9759 42.4427 15.6555 42.4427 15.2281V6.37721C42.4427 5.88882 42.3152 5.55956 42.0605 5.38915ZM51.9911 4.94277C51.8076 4.94277 51.6522 4.97589 51.5247 5.042C51.3973 5.1081 51.2813 5.20352 51.1769 5.32812C51.0723 5.45286 50.9769 5.58634 50.8902 5.7287C50.8035 5.8712 50.6964 6.04668 50.5691 6.25515L48.4515 9.65048L46.357 6.25515C46.0359 5.73124 45.795 5.38154 45.6345 5.20606C45.4739 5.03058 45.2381 4.94277 44.9273 4.94277C44.6317 4.94277 44.3833 5.03692 44.182 5.22509C43.9806 5.4134 43.8801 5.63709 43.8801 5.89657C43.8801 6.0543 43.9298 6.23993 44.0292 6.45361C44.1286 6.66729 44.298 6.96483 44.5376 7.34638L47.2744 11.5811V15.129C47.2744 15.5971 47.3788 15.9443 47.5879 16.1705C47.7968 16.3967 48.0695 16.5101 48.4058 16.5101C48.737 16.5101 49.0098 16.3956 49.2239 16.1667C49.438 15.9378 49.545 15.5919 49.545 15.129V11.5809L52.3507 7.28521C52.5851 6.93424 52.7507 6.65953 52.8477 6.46122C52.9444 6.2629 52.993 6.06444 52.993 5.86613C52.993 5.622 52.8974 5.4072 52.7063 5.22143C52.5149 5.03565 52.2766 4.94277 51.9911 4.94277ZM67.6313 4.94277C67.3356 4.94277 67.1101 5.01902 66.9548 5.17167C66.7993 5.32432 66.6896 5.49726 66.6261 5.69051C66.5622 5.88389 66.4948 6.15085 66.4235 6.49166L64.9555 13.023L63.2966 6.91141C63.159 6.4078 63.0493 6.04668 62.9679 5.82793C62.8863 5.60932 62.7397 5.40706 62.5282 5.22143C62.3167 5.03579 62.0198 4.94291 61.6376 4.94291C61.2604 4.94291 60.9622 5.03199 60.7431 5.21001C60.5239 5.38817 60.3659 5.59917 60.2691 5.84329C60.1723 6.08742 60.0626 6.4436 59.9404 6.91155L58.2969 13.023L56.8291 6.49166C56.7221 5.98805 56.5971 5.6041 56.4544 5.33954C56.3117 5.07512 56.034 4.94277 55.6212 4.94277C55.3204 4.94277 55.0681 5.042 54.8643 5.24031C54.6603 5.43863 54.5584 5.68289 54.5584 5.97283C54.5584 6.20173 54.6144 6.53493 54.7265 6.9723L56.5919 14.5031C56.648 14.7271 56.7115 14.9698 56.783 15.2318C56.8543 15.4938 56.9461 15.7201 57.0583 15.9109C57.1703 16.1016 57.3169 16.2493 57.4979 16.3535C57.6787 16.4576 57.9093 16.5099 58.1898 16.5099C58.5363 16.5099 58.8141 16.4223 59.0231 16.2468C59.232 16.0713 59.3786 15.8728 59.4627 15.6517C59.5469 15.4304 59.6602 15.0655 59.803 14.5568L61.6377 7.84999L63.4495 14.5568C63.5972 15.0807 63.7119 15.4508 63.7935 15.6669C63.875 15.8831 64.0203 16.0778 64.2294 16.2506C64.4383 16.4235 64.7161 16.5101 65.0627 16.5101C65.4295 16.5101 65.7137 16.421 65.9151 16.243C66.1164 16.065 66.2592 15.8576 66.3432 15.6211C66.4273 15.3846 66.533 15.0121 66.6605 14.5034L68.5258 6.97258C68.6378 6.51478 68.6939 6.18171 68.6939 5.97311C68.6939 5.6781 68.5908 5.43271 68.3843 5.23679C68.1779 5.04073 67.9269 4.94277 67.6313 4.94277ZM71.4155 4.94277C71.0842 4.94277 70.8141 5.05722 70.6052 5.28612C70.3962 5.51502 70.2917 5.85838 70.2917 6.31618V15.1288C70.2917 15.5866 70.3975 15.9312 70.609 16.1626C70.8205 16.3941 71.0894 16.5098 71.4155 16.5098C71.7569 16.5098 72.0335 16.3953 72.245 16.1664C72.4565 15.9375 72.5623 15.5916 72.5623 15.1288V6.31618C72.5623 5.85344 72.4565 5.50868 72.245 5.28232C72.0335 5.05609 71.7569 4.94277 71.4155 4.94277ZM82.4739 10.5661C82.1146 10.3118 81.6788 10.0956 81.1666 9.91758C80.6544 9.73956 80.0822 9.57691 79.4502 9.42933C78.9456 9.3022 78.5837 9.2055 78.3646 9.1394C78.1455 9.07329 77.929 8.98182 77.7149 8.86469C77.5008 8.7477 77.3326 8.60788 77.2103 8.44508C77.0879 8.28243 77.0267 8.08904 77.0267 7.86522C77.0267 7.5041 77.2064 7.19514 77.5657 6.93819C77.925 6.68138 78.3978 6.55283 78.9838 6.55283C79.6157 6.55283 80.0744 6.67109 80.3599 6.9076C80.6453 7.14412 80.8899 7.47352 81.0938 7.89566C81.2517 8.19067 81.3983 8.40308 81.5335 8.53275C81.6685 8.66243 81.866 8.72726 82.1259 8.72726C82.4113 8.72726 82.6495 8.6193 82.8406 8.40294C83.0318 8.18686 83.1273 7.94401 83.1273 7.67423C83.1273 7.37922 83.0509 7.0766 82.898 6.76623C82.7451 6.456 82.5029 6.15959 82.1717 5.87726C81.8403 5.59494 81.4237 5.36872 80.9217 5.19817C80.4197 5.02776 79.8247 4.94263 79.1366 4.94263C78.2753 4.94263 77.5261 5.07117 76.889 5.32798C76.2518 5.58493 75.7652 5.95239 75.4288 6.43049C75.0923 6.90873 74.9242 7.45548 74.9242 8.071C74.9242 8.71711 75.0835 9.25751 75.402 9.69234C75.7204 10.1273 76.1512 10.4705 76.694 10.7224C77.2368 10.9741 77.9106 11.1943 78.716 11.3823C79.3173 11.5196 79.7978 11.6494 80.1571 11.7715C80.5164 11.8936 80.8094 12.0703 81.0362 12.3017C81.263 12.5333 81.3764 12.8347 81.3764 13.2059C81.3764 13.674 81.1663 14.0643 80.7457 14.3771C80.3252 14.6899 79.7786 14.8463 79.1059 14.8463C78.6166 14.8463 78.2216 14.7688 77.9209 14.6136C77.6201 14.4586 77.387 14.2614 77.2214 14.0223C77.0558 13.7833 76.9014 13.4857 76.7589 13.1295C76.6417 12.8295 76.5001 12.6031 76.3347 12.4504C76.1691 12.2978 75.9664 12.2215 75.7269 12.2215C75.4312 12.2215 75.1879 12.3195 74.9968 12.5153C74.8057 12.7112 74.7101 12.9463 74.7101 13.221C74.7101 13.694 74.8694 14.1812 75.1879 14.6821C75.5063 15.1832 75.9206 15.5838 76.4302 15.8838C77.1488 16.301 78.0612 16.5095 79.1671 16.5095C80.0894 16.5095 80.8872 16.3569 81.56 16.0517C82.2327 15.7465 82.7437 15.3244 83.0928 14.7851C83.4418 14.246 83.6164 13.6381 83.6164 12.9615C83.6164 12.3969 83.5158 11.9201 83.3145 11.5309C83.1135 11.1422 82.8332 10.8205 82.4739 10.5661ZM94.6828 5.28232C94.4712 5.05609 94.1947 4.94277 93.8533 4.94277C93.517 4.94277 93.2455 5.05722 93.0392 5.28612C92.8327 5.51502 92.7295 5.85838 92.7295 6.31618V9.52081H87.8291V6.31618C87.8291 5.85344 87.7233 5.50868 87.5118 5.28232C87.3003 5.05609 87.0237 4.94277 86.6823 4.94277C86.3357 4.94277 86.0617 5.05722 85.8605 5.28612C85.659 5.51502 85.5586 5.85838 85.5586 6.31618V15.1288C85.5586 15.5866 85.6605 15.9312 85.8644 16.1626C86.0682 16.3941 86.341 16.5098 86.6823 16.5098C87.0188 16.5098 87.2939 16.3953 87.508 16.1664C87.7221 15.9375 87.8291 15.5916 87.8291 15.1288V11.3672H92.7295V15.1289C92.7295 15.5867 92.8314 15.9313 93.0354 16.1628C93.2392 16.3942 93.5119 16.5099 93.8533 16.5099C94.1897 16.5099 94.4649 16.3955 94.679 16.1666C94.8931 15.9377 95.0001 15.5918 95.0001 15.1288V6.31618C95.0001 5.8533 94.8942 5.50868 94.6828 5.28232Z" fill="white"/>
</svg>
