<svg width="81" height="24" viewBox="0 0 81 24" fill="none" xmlns="http://www.w3.org/2000/svg">
<path d="M40.9664 16.4546L38.113 12.1469H36.3273V16.4546H33.658V2.90556H37.7632C39.4446 2.90556 40.7455 3.3167 41.666 4.13897C42.5987 4.94897 43.0651 6.05965 43.0651 7.47101C43.0651 8.30556 42.8871 9.09101 42.5312 9.82737C42.1876 10.5515 41.6537 11.1221 40.9296 11.5394L44.0776 16.4546H40.9664ZM36.3273 9.56965H38.2235C38.9476 9.56965 39.4753 9.36101 39.8066 8.94374C40.138 8.51419 40.3037 8.05397 40.3037 7.56306C40.3037 7.07215 40.1626 6.60579 39.8803 6.16397C39.598 5.70988 39.0519 5.48283 38.2419 5.48283H36.3273V9.56965ZM53.9549 8.40987V16.4546H51.6169L51.4328 15.166C51.1506 15.6815 50.7517 16.0926 50.2363 16.3994C49.7331 16.694 49.1378 16.8412 48.4506 16.8412C47.7142 16.8412 47.1006 16.6142 46.6097 16.1601C46.1188 15.706 45.8672 15.1292 45.8549 14.4296V8.40987H48.4322V13.4724C48.469 14.2578 48.831 14.6506 49.5183 14.6506C50.0828 14.6506 50.5308 14.3744 50.8622 13.8221C51.2058 13.2699 51.3776 12.5581 51.3776 11.6867V8.40987H53.9549ZM62.2387 8.00487C62.9382 8.00487 63.5764 8.17669 64.1532 8.52033C64.7423 8.85169 65.2087 9.33647 65.5523 9.97465C65.896 10.6128 66.0678 11.3737 66.0678 12.2574C66.0678 13.141 65.8775 13.9203 65.4971 14.5953C65.1166 15.2581 64.6073 15.7735 63.9691 16.1417C63.331 16.4976 62.6375 16.6756 61.8889 16.6756C60.7966 16.6756 59.8946 16.3319 59.1828 15.6446V16.4546H56.6055V1.92988H59.1644V8.96215C59.508 8.67987 59.9437 8.45283 60.4714 8.28101C60.9991 8.09692 61.5882 8.00487 62.2387 8.00487ZM61.3182 14.5033C61.6987 14.5033 62.0485 14.4051 62.3675 14.2087C62.6989 14.0124 62.9628 13.7424 63.1591 13.3987C63.3555 13.0428 63.4537 12.6562 63.4537 12.239C63.4537 11.6008 63.245 11.0731 62.8278 10.6558C62.4105 10.2385 61.9073 10.0299 61.3182 10.0299C60.815 10.0299 60.3732 10.1465 59.9928 10.3796C59.6123 10.6128 59.3423 10.9258 59.1828 11.3185V13.2883C59.6246 14.0983 60.3364 14.5033 61.3182 14.5033ZM70.6705 8.40987V16.4546H68.0932V8.40987H70.6705ZM68.038 5.55647C68.038 5.18829 68.1791 4.88147 68.4614 4.63601C68.7559 4.37829 69.0873 4.24942 69.4555 4.24942C69.8114 4.24942 70.1305 4.37829 70.4127 4.63601C70.695 4.88147 70.8362 5.18829 70.8362 5.55647C70.8362 5.92465 70.695 6.23147 70.4127 6.47692C70.1305 6.72238 69.8114 6.8451 69.4555 6.8451C69.0873 6.8451 68.7559 6.72238 68.4614 6.47692C68.1791 6.23147 68.038 5.92465 68.038 5.55647ZM80.1545 15.7367C79.7986 16.019 79.3506 16.246 78.8106 16.4178C78.2829 16.5896 77.7613 16.6756 77.2458 16.6756C75.8467 16.6756 74.7361 16.3012 73.9138 15.5526C73.1038 14.7917 72.6988 13.7485 72.6988 12.4231C72.6988 11.564 72.8951 10.8153 73.2879 10.1771C73.6929 9.52669 74.2206 9.03578 74.8711 8.70442C75.5215 8.36078 76.2211 8.18897 76.9697 8.18897C78.3074 8.18897 79.3936 8.54487 80.2281 9.25669L78.9763 10.9135C78.4486 10.4962 77.8595 10.2876 77.209 10.2876C76.669 10.2876 76.2088 10.4901 75.8283 10.8951C75.4601 11.3001 75.2761 11.8094 75.2761 12.4231C75.2761 13.0367 75.4786 13.5521 75.8836 13.9694C76.2886 14.3744 76.8163 14.5769 77.4667 14.5769C78.0313 14.5769 78.4976 14.4235 78.8658 14.1167L80.1545 15.7367Z" fill="white"/>
<path d="M18.8956 5.07246L10.1184 10.1316L4.05 6.62606L10.1184 3.12049L13.4911 5.07246L16.2 3.50557L10.1184 0L0 5.84262V7.39623L8.77721 12.4687V19.4798L2.70885 15.9743V12.0836L0 10.5167V17.5279L10.1184 23.3705L11.4728 22.6003V12.4687L17.5411 8.96311V15.9743L14.1684 17.9129V21.0467L20.25 17.5279V5.84262L18.8956 5.07246Z" fill="white"/>
</svg>
